<?xml version="1.0" encoding="UTF-8"?>
<svg width="160px" height="56px" viewBox="0 0 160 56" version="1.1" xmlns="http://www.w3.org/2000/svg" xmlns:xlink="http://www.w3.org/1999/xlink">
    <!-- Generator: Sketch 51.1 (57501) - http://www.bohemiancoding.com/sketch -->
    <title>SMU_logo_CMYK</title>
    <desc>Created with Sketch.</desc>
    <defs>
        <polygon id="path-1" points="0.0406779661 0.387277108 49.3830508 0.387277108 49.3830508 55.2848193 0.0406779661 55.2848193"></polygon>
        <path d="M40.5362712,21.4554217 C40.5369492,21.4554217 40.5369492,21.4554217 40.5369492,21.4554217 C40.5369492,21.4554217 40.5369492,21.4554217 40.5362712,21.4554217 C40.5355932,21.4554217 40.5349153,21.454747 40.5342373,21.454747 C40.5349153,21.454747 40.5355932,21.4554217 40.5362712,21.4554217 M40.5315254,21.4527229 C40.5315254,21.4527229 40.5308475,21.4527229 40.5308475,21.4520482 C40.48,21.3872771 40.7728814,20.1984578 40.6413559,18.1885301 C40.7728814,20.1991325 40.48,21.3879518 40.5315254,21.4527229 C40.5240678,21.4446265 40.5166102,21.4203373 40.5077966,21.3805301 C40.5166102,21.4203373 40.5240678,21.4439518 40.5308475,21.4520482 M0.385762712,18.730988 C0.385084746,18.730988 0.38440678,18.730988 0.383728814,18.7303133 C0.38440678,18.730988 0.385084746,18.730988 0.385762712,18.730988 C0.385762712,18.730988 0.385762712,18.730988 0.386440678,18.730988 C0.385762712,18.730988 0.385762712,18.730988 0.385762712,18.730988 M0.386440678,18.730988 C0.387118644,18.730988 0.388474576,18.7296386 0.389830508,18.7282892 C0.388474576,18.7303133 0.38779661,18.730988 0.386440678,18.730988 M0.389830508,18.7282892 C0.410169492,18.6925301 0.383728814,18.3153735 0.423050847,17.660241 C0.505084746,16.2777831 0.877966102,13.6586024 2.59389831,10.4139759 C2.6020339,10.3991325 2.60949153,10.3849639 2.61762712,10.3694458 L2.61830508,10.3687711 C2.61830508,10.3674217 2.61898305,10.3674217 2.61966102,10.3660723 C2.62915254,10.3478554 2.63864407,10.3296386 2.64881356,10.3114217 C2.65016949,10.3093976 2.65084746,10.3066988 2.65220339,10.3053494 C2.65423729,10.3006265 2.65627119,10.2965783 2.65898305,10.2925301 C2.6840678,10.2453012 2.70983051,10.1973976 2.73627119,10.149494 C2.73898305,10.1440964 2.74169492,10.1380241 2.74508475,10.1319518 C2.75118644,10.1211566 2.75728814,10.1096867 2.76338983,10.0982169 C2.7640678,10.0961928 2.76474576,10.0948434 2.76542373,10.093494 C2.77016949,10.0847229 2.77491525,10.0759518 2.77966102,10.0671807 C5.22169492,5.45493976 11.8257627,0.0357590361 20.3016949,0.0350843373 C20.3023729,0.0350843373 20.3030508,0.0350843373 20.3037288,0.0350843373 C20.8108475,0.0350843373 21.3247458,0.0546506024 21.8454237,0.0944578313 C21.8542373,0.0951325301 21.8630508,0.0958072289 21.8718644,0.0964819277 L21.8725424,0.0964819277 C22.0176271,0.104578313 22.1613559,0.114698795 22.3050847,0.126168675 C22.3138983,0.126843373 22.3227119,0.127518072 22.3315254,0.128192771 L22.3328814,0.128192771 C22.3416949,0.12886747 22.3491525,0.129542169 22.3586441,0.130891566 L22.359322,0.130891566 C22.3681356,0.131566265 22.3749153,0.132240964 22.3837288,0.132915663 C22.3844068,0.132915663 22.3857627,0.132915663 22.3864407,0.132915663 C22.3938983,0.133590361 22.4013559,0.13426506 22.4081356,0.134939759 C22.4108475,0.134939759 22.4135593,0.134939759 22.4155932,0.135614458 C22.4216949,0.135614458 22.4284746,0.136289157 22.4345763,0.136963855 C22.4379661,0.136963855 22.4420339,0.137638554 22.4447458,0.137638554 C22.4494915,0.138313253 22.4528814,0.138313253 22.4576271,0.138987952 C22.4630508,0.139662651 22.4691525,0.140337349 22.4752542,0.140337349 C22.4772881,0.141012048 22.4779661,0.141012048 22.480678,0.141012048 C28.5037288,0.675373494 33.2908475,3.84173494 36.3111864,7.41561446 C37.0922034,8.34062651 37.7552542,9.29195181 38.2915254,10.2331566 C38.7552542,11.0475181 39.1240678,11.8531084 39.3911864,12.6263133 C38.0847458,8.8493494 34.3579661,4.27826506 28.9044068,1.82371084 C28.9044068,1.82438554 28.9030508,1.82438554 28.9030508,1.82438554 C28.4494915,1.61927711 27.9837288,1.42833735 27.5057627,1.25561446 C26.2515254,2.02746988 24.9701695,2.99498795 23.6901695,4.13590361 C23.0244068,4.02660241 22.3430508,3.95036145 21.6481356,3.90987952 C21.6467797,3.90987952 21.6454237,3.90987952 21.6440678,3.90987952 C21.64,3.90920482 21.6366102,3.90920482 21.6325424,3.90920482 C21.6291525,3.90853012 21.6257627,3.90853012 21.6223729,3.90853012 C21.619661,3.90853012 21.6169492,3.90785542 21.6142373,3.90785542 C21.6074576,3.90785542 21.6013559,3.90718072 21.5945763,3.90718072 C21.0738983,3.8653494 20.5572881,3.84578313 20.0474576,3.84578313 C20.0467797,3.84578313 20.0461017,3.84578313 20.0454237,3.84578313 C13.1261017,3.84578313 7.30372881,7.5066988 4.32949153,11.2168675 C4.32677966,11.220241 4.32338983,11.2242892 4.32067797,11.2276627 C4.31186441,11.2384578 4.30372881,11.249253 4.29491525,11.2593735 C4.29288136,11.2620723 4.29084746,11.2647711 4.28881356,11.2674699 C1.12135593,15.1773494 0.477966102,18.6149398 0.389830508,18.7282892 M40.6413559,18.1858313 C40.640678,18.1811084 40.640678,18.1763855 40.64,18.1716627 C40.640678,18.1763855 40.640678,18.1811084 40.6413559,18.1858313 M37.7864407,13.6673735 C37.7830508,13.6619759 37.780339,13.657253 37.7769492,13.6518554 C37.780339,13.657253 37.7830508,13.6619759 37.7864407,13.6673735 M37.7640678,13.6295904 C37.7342373,13.5796627 37.7044068,13.5304096 37.6745763,13.4804819 C37.7044068,13.5304096 37.7342373,13.5796627 37.7640678,13.6295904 M37.6745763,13.4804819 C37.6725424,13.4771084 37.6698305,13.4737349 37.6677966,13.4696867 C37.6698305,13.4730602 37.6725424,13.4771084 37.6745763,13.4804819 M37.6623729,13.460241 C37.6623729,13.460241 37.6623729,13.4595663 37.6616949,13.4595663 C37.6623729,13.4595663 37.6623729,13.460241 37.6623729,13.460241 M39.5098305,12.9488193 C39.5064407,12.9386988 39.5023729,12.9279036 39.4989831,12.9177831 C39.5023729,12.9279036 39.5064407,12.9386988 39.5098305,12.9488193 M39.4983051,12.9171084 C39.4949153,12.9076627 39.4922034,12.8988916 39.4881356,12.8894458 C39.4922034,12.8988916 39.4949153,12.9076627 39.4983051,12.9171084 M39.4671186,12.8300723 C39.4535593,12.7943133 39.44,12.7578795 39.4264407,12.7214458 C39.44,12.7578795 39.4535593,12.7943133 39.4671186,12.8300723 M39.4210169,12.7059277 C39.4122034,12.682988 39.4033898,12.6607229 39.3952542,12.6371084 C39.4033898,12.6607229 39.4122034,12.682988 39.4210169,12.7059277" id="path-3"></path>
        <path d="M2.67254237,3.90718072 C2.01220339,3.72568675 1.33423729,3.57590361 0.639322034,3.46120482 C1.91932203,2.32028916 3.20067797,1.35277108 4.45491525,0.580915663 C4.93288136,0.753638554 5.39864407,0.944578313 5.85220339,1.14968675 C5.34915254,1.4020241 4.86779661,1.58081928 4.36610169,2.15633735 C3.80677966,2.7986506 3.25694915,3.33233735 2.67254237,3.90718072" id="path-5"></path>
    </defs>
    <g id="Symbols" stroke="none" stroke-width="1" fill="none" fill-rule="evenodd">
        <g id="Footer" transform="translate(-60.000000, -11.000000)">
            <g id="Col---1">
                <g transform="translate(2.000000, 11.000000)">
                    <g id="SMU_logo_CMYK" transform="translate(58.000000, 0.000000)">
                        <g>
                            <g id="Group-3" transform="translate(0.000000, 0.674699)">
                                <mask id="mask-2" fill="white">
                                    <use xlink:href="#path-1"></use>
                                </mask>
                                <g id="Clip-2"></g>
                                <polyline id="Fill-1" fill="#638A9B" mask="url(#mask-2)" points="49.3830508 45.409253 24.6888136 55.3253012 0 45.409253 0 0.387277108 49.3830508 0.387277108 49.3830508 45.409253"></polyline>
                            </g>
                            <path d="M12.3118644,20.5540241 C12.4,20.4710361 12.4908475,20.3880482 12.5837288,20.3057349 C12.4942373,20.3880482 12.4027119,20.4710361 12.3118644,20.5540241 M12.1708475,18.4233253 C12.2698305,18.3140241 12.4040678,18.179759 12.5518644,18.038747 C12.4210169,18.1662651 12.2935593,18.2944578 12.1708475,18.4233253" id="Fill-4" fill="#2A4B5F"></path>
                            <path d="M17.8379661,51.5355181 C17.7172881,51.5355181 17.6589831,51.5233735 17.6698305,51.5071807 C17.6705085,51.5119036 17.6772881,51.5139277 17.6894915,51.5139277 C17.8583051,51.5139277 19.1274576,51.0713253 20.84,49.8393253 C21.4725424,49.9040964 22.1172881,49.9425542 22.7742373,49.945253 C23.5274576,49.5417831 24.3308475,49.0438554 25.1654237,48.419759 C21.599322,51.0902169 18.5715254,51.5355181 17.8379661,51.5355181 M25.4928814,48.1694458 C25.68,48.0297831 25.8677966,47.8853976 26.0576271,47.7362892 C25.8684746,47.8853976 25.68,48.0297831 25.4928814,48.1694458 M26.8183051,43.597012 C26.9186441,43.4640964 27.0189831,43.330506 27.119322,43.1948916 C27.6942373,43.140241 28.259661,43.0586024 28.8115254,42.9526747 C28.2223729,43.0882892 27.6433898,43.1955663 27.1288136,43.2434699 C27.0250847,43.3628916 26.9213559,43.4809639 26.8183051,43.597012 M30.6705085,43.1517108 C31.1037288,42.7327229 31.4671186,42.3764819 31.7057627,42.1396627 L31.7064407,42.1396627 C31.4372881,42.4628434 31.1681356,42.7779277 30.8983051,43.0855904 C30.8223729,43.1078554 30.7464407,43.1301205 30.6705085,43.1517108 M29.3620339,39.9597108 C31.2115254,37.121253 33.0623729,33.8624578 34.8013559,30.3418795 C36.0949153,27.7361928 37.2379661,25.1662651 38.1864407,22.7096867 C38.5335593,23.072 38.8481356,23.4403855 39.1220339,23.8141687 C39.8094915,24.7101687 40.2949153,25.5764819 40.6481356,26.3598072 C40.7484746,26.0771084 40.8454237,25.7944096 40.939661,25.5130602 C40.940339,25.5150843 40.9410169,25.5164337 40.9416949,25.5184578 C40.2237288,27.664 39.3240678,29.8533976 38.2433898,32.0286265 C37.2352542,34.0722892 36.1220339,35.9924819 34.9477966,37.7682892 C33.3342373,38.7263614 31.440678,39.5009157 29.3620339,39.9597108 M41.3633898,24.1946988 C41.1586441,23.387759 40.8366102,22.482988 40.339661,21.5060241 C40.0576271,20.9183614 39.6935593,20.3246265 39.2549153,19.738988 C39.7437288,18.2688193 40.1484746,16.8553253 40.4589831,15.5194217 C41.2359322,16.3951807 41.8908475,17.2959036 42.4074576,18.1824578 C42.4081356,18.1824578 42.4081356,18.1831325 42.4081356,18.1831325 C42.4101695,18.186506 42.4122034,18.1892048 42.4135593,18.1925783 C42.4155932,18.1966265 42.4183051,18.2 42.420339,18.2033735 C42.4501695,18.2533012 42.48,18.3025542 42.5098305,18.3524819 C42.5138983,18.3599036 42.5186441,18.3673253 42.5227119,18.374747 C42.5261017,18.3801446 42.5288136,18.3848675 42.5322034,18.3902651 C42.5755932,18.4631325 42.6183051,18.5366747 42.660339,18.6095422 C42.3776271,20.3968193 41.9450847,22.2718072 41.3633898,24.1946988 M43.0372881,14.9560482 C42.5010169,14.0148434 41.8379661,13.0635181 41.0569492,12.138506 C41.0623729,12.089253 41.0677966,12.04 41.0732203,11.990747 C41.9281356,7.03103614 39.4,4.5926747 39.1722034,4.5926747 C39.1654237,4.5926747 39.160678,4.5946988 39.1579661,4.59942169 C39.1518644,4.57918072 39.1627119,4.56838554 39.1891525,4.56838554 C39.5545763,4.56838554 42.8820339,6.61542169 42.9918644,12.0082892 C43.0671186,12.936 43.0820339,13.9217349 43.0372881,14.9560482" id="Fill-5" fill="#224156"></path>
                            <path d="M20.84,49.8393253 C20.839322,49.8393253 20.8379661,49.8386506 20.8366102,49.8386506 C21.6027119,49.2880964 22.4555932,48.5823614 23.340339,47.685012 L23.3410169,47.6856867 C22.4583051,48.5816867 21.6054237,49.2887711 20.84,49.8393253 M25.1654237,48.419759 C25.2738983,48.3381205 25.3830508,48.2551325 25.4928814,48.1694458 C25.3830508,48.2551325 25.2738983,48.3387952 25.1654237,48.419759" id="Fill-6" fill="#0B1116"></path>
                            <path d="M22.7742373,49.945253 C22.1172881,49.9425542 21.4725424,49.9040964 20.84,49.8393253 C21.6054237,49.2887711 22.4583051,48.5816867 23.3410169,47.6856867 C23.9071186,47.7349398 24.4833898,47.7605783 25.0677966,47.7605783 C25.3945763,47.7605783 25.7254237,47.7524819 26.0576271,47.7362892 C25.8677966,47.8853976 25.68,48.0297831 25.4928814,48.1694458 C25.3830508,48.2551325 25.2738983,48.3381205 25.1654237,48.419759 C24.3308475,49.0438554 23.5274576,49.5417831 22.7742373,49.945253" id="Fill-7" fill="#0C1115"></path>
                            <path d="M26.5708475,43.8722892 C26.6528814,43.7818795 26.7355932,43.6901205 26.8183051,43.597012 C26.7491525,43.6887711 26.68,43.7791807 26.6108475,43.8695904 C26.5979661,43.8702651 26.5844068,43.8716145 26.5708475,43.8722892" id="Fill-8" fill="#0B1116"></path>
                            <path d="M26.6108475,43.8695904 C26.68,43.7791807 26.7491525,43.6887711 26.8183051,43.597012 C26.9213559,43.4809639 27.0250847,43.3628916 27.1288136,43.2434699 C27.6433898,43.1955663 28.2223729,43.0882892 28.8115254,42.9526747 C29.820339,42.7590361 30.7877966,42.4824096 31.7057627,42.1396627 C31.4671186,42.3764819 31.1037288,42.7327229 30.6705085,43.1517108 C29.3844068,43.5214458 28.0277966,43.7710843 26.6108475,43.8695904" id="Fill-9" fill="#0C1115"></path>
                            <path d="M28.5376271,29.3905542 C28.5335593,29.3898795 28.5315254,29.3885301 28.5308475,29.3871807 C28.5328814,29.3871807 28.5349153,29.3871807 28.5362712,29.3878554 C28.5362712,29.3892048 28.5369492,29.3898795 28.5376271,29.3905542 M28.5322034,29.3838072 C28.5328814,29.3824578 28.5349153,29.3804337 28.5369492,29.3790843 C28.5369492,29.3804337 28.5362712,29.3817831 28.5362712,29.3831325 C28.5355932,29.3824578 28.5355932,29.3824578 28.5349153,29.3824578 C28.5342373,29.3824578 28.5328814,29.3831325 28.5322034,29.3838072 M28.5369492,29.3790843 C28.5789831,29.2434699 29.5044068,27.9682892 29.2474576,26.0244819 C29.1023729,23.997012 27.7728814,21.4095422 25.959322,18.9118072 C25.6542373,18.4253494 25.3315254,17.9712771 24.9979661,17.5475663 C25.3335593,17.5516145 25.6705085,17.5624096 26.0108475,17.584 C27.4061017,17.6406747 28.7444068,17.8491566 30.0115254,18.1703133 C29.7518644,17.6939759 29.4644068,17.2243855 29.1383051,16.7696386 C31.3952542,19.915759 32.0623729,23.7460241 31.1505085,26.2808675 C30.3267797,28.7630843 28.6555932,29.2960964 28.5369492,29.3790843 M28.8861017,16.4221687 C28.8718644,16.4026024 28.8569492,16.3830361 28.8427119,16.3634699 C28.8569492,16.3830361 28.8718644,16.4026024 28.8861017,16.4221687 M20.5491525,13.6957108 C20.5457627,13.6943614 20.5416949,13.6923373 20.5383051,13.6903133 C20.5335593,13.6916627 20.5281356,13.6936867 20.5233898,13.6950361 C18.9383051,12.794988 17.5871186,12.4225542 17.0155932,12.4225542 C16.9389831,12.4225542 16.8766102,12.4286265 16.8291525,12.4421205 C16.9552542,12.3530602 17.2,12.1931566 17.5661017,12.0325783 C18.1145763,11.7923855 18.9349153,11.5528675 20.0352542,11.5528675 C20.2332203,11.5528675 20.440678,11.5602892 20.6569492,11.5778313 C22.039322,11.6709398 23.6840678,12.1924819 25.2637288,13.1444819 C25.1769492,13.1431325 25.0894915,13.1424578 25.0027119,13.1424578 C23.4474576,13.1424578 21.9532203,13.3435181 20.5491525,13.6957108 M16.7288136,12.5122892 C16.7281356,12.5122892 16.7281356,12.5116145 16.7294915,12.5095904 C16.7416949,12.4792289 16.7755932,12.4569639 16.8291525,12.4421205 C16.7661017,12.4859759 16.7328814,12.5122892 16.7288136,12.5122892" id="Fill-10" fill="#224156"></path>
                            <path d="M38.1864407,22.7096867 C38.1857627,22.7096867 38.1857627,22.7096867 38.1857627,22.709012 C38.3281356,22.3413012 38.4644068,21.9762892 38.5966102,21.6139759 C38.5972881,21.6146506 38.5979661,21.6153253 38.5986441,21.616 C38.4657627,21.9776386 38.3281356,22.3426506 38.1864407,22.7096867" id="Fill-11" fill="#0B1116"></path>
                            <path d="M40.6481356,26.3598072 C40.2949153,25.5764819 39.8094915,24.7101687 39.1220339,23.8141687 C38.8481356,23.4403855 38.5335593,23.072 38.1864407,22.7096867 C38.3281356,22.3426506 38.4657627,21.9776386 38.5986441,21.616 C38.7857627,21.8319036 38.960678,22.050506 39.1220339,22.2704578 C40.019661,23.4410602 40.5823729,24.5657831 40.939661,25.5130602 C40.8454237,25.7944096 40.7484746,26.0771084 40.6481356,26.3598072" id="Fill-12" fill="#0C1115"></path>
                            <path d="M24.9979661,17.5475663 C24.9938983,17.5475663 24.9898305,17.5475663 24.9857627,17.5475663 C24.5464407,16.9922892 24.0881356,16.4882892 23.6216949,16.0342169 C23.6250847,16.0335422 23.6284746,16.0335422 23.6318644,16.0335422 C24.099661,16.4876145 24.5586441,16.9916145 24.9979661,17.5475663 M29.1383051,16.7696386 C29.1118644,16.7332048 29.0854237,16.6967711 29.0589831,16.6603373 C29.0854237,16.6967711 29.1118644,16.7332048 29.1383051,16.7696386 M29.0589831,16.6603373 C29.0020339,16.5800482 28.9444068,16.5004337 28.8861017,16.4221687 C28.9444068,16.5004337 29.0020339,16.5800482 29.0589831,16.6603373" id="Fill-13" fill="#0B1116"></path>
                            <path d="M30.0115254,18.1703133 C28.7444068,17.8491566 27.4061017,17.6406747 26.0108475,17.584 C25.6705085,17.5624096 25.3335593,17.5516145 24.9979661,17.5475663 C24.5586441,16.9916145 24.099661,16.4876145 23.6318644,16.0335422 C23.8616949,16.0200482 24.0942373,16.0106024 24.3267797,16.0058795 L24.3227119,16.0119518 L26.1905085,16.1502651 L26.259661,16.051759 C27.1444068,16.098988 28.0067797,16.2055904 28.8427119,16.3634699 C28.8569492,16.3830361 28.8718644,16.4026024 28.8861017,16.4221687 C28.9444068,16.5004337 29.0020339,16.5800482 29.0589831,16.6603373 C29.0854237,16.6967711 29.1118644,16.7332048 29.1383051,16.7696386 C29.4644068,17.2243855 29.7518644,17.6939759 30.0115254,18.1703133" id="Fill-14" fill="#0C1115"></path>
                            <path d="M25.0677966,47.7605783 C24.4833898,47.7605783 23.9071186,47.7349398 23.3410169,47.6856867 L23.340339,47.685012 C15.72,47.0190843 9.83932203,42.0506024 7.57559322,37.7851566 C4.85355932,32.8942651 5.22305085,29.3460241 5.15864407,29.2279518 C5.24813559,29.3453494 5.92677966,32.7984578 9.15118644,36.6955181 C10.0820339,37.8384578 11.2874576,38.976 12.7145763,39.9988434 C12.6128814,40.8833735 12.5471186,41.7348434 12.5247458,42.5384096 C12.5098305,42.8319036 12.5050847,43.1146024 12.5030508,43.393253 C13.0027119,43.778506 13.5294915,44.1502651 14.0813559,44.5024578 C14.1688136,43.9525783 14.2827119,43.3736867 14.4298305,42.7684819 C14.5315254,42.2975422 14.6528814,41.8077108 14.7837288,41.3084337 C17.6101695,42.8791325 21.04,43.9519036 24.7864407,43.9519036 C25.3464407,43.9519036 25.9125424,43.9276145 26.4861017,43.8776867 C26.5138983,43.8763373 26.5423729,43.8743133 26.5708475,43.8722892 C26.5844068,43.8716145 26.5979661,43.8702651 26.6108475,43.8695904 C28.0277966,43.7710843 29.3844068,43.5214458 30.6705085,43.1517108 C30.7464407,43.1301205 30.8223729,43.1078554 30.8983051,43.0855904 C36.3294915,41.4555181 40.4766102,37.6933976 42.4840678,34.1728193 C45.0955932,29.7866024 45.1722034,26.2383614 45.279322,26.1776386 C45.1715254,26.228241 46.1708475,29.6921446 44.2115254,35.0020241 C42.4501695,40.2538795 36.0386441,47.0845301 26.7674576,47.6883855 C26.5294915,47.7086265 26.2928814,47.7241446 26.0576271,47.7362892 C25.7254237,47.7524819 25.3945763,47.7605783 25.0677966,47.7605783 M5.15864407,29.2279518 C5.15728814,29.2266024 5.15661017,29.225253 5.15525424,29.225253 C5.15661017,29.225253 5.1579661,29.2259277 5.15864407,29.2279518 M5.15254237,29.2259277 C5.15322034,29.225253 5.15389831,29.225253 5.15457627,29.225253 L5.15525424,29.225253 C5.15457627,29.225253 5.15389831,29.225253 5.15254237,29.2259277 M45.279322,26.1776386 C45.280678,26.1769639 45.2813559,26.1769639 45.2820339,26.1769639 C45.2833898,26.1769639 45.2840678,26.1769639 45.2854237,26.1776386 C45.2840678,26.1769639 45.2833898,26.1769639 45.2820339,26.1769639 C45.2813559,26.1769639 45.280678,26.1769639 45.279322,26.1776386" id="Fill-15" fill="#224156"></path>
                            <path d="M41.6176271,28.1565301 C41.6169492,28.1565301 41.6155932,28.1565301 41.6149153,28.1558554 C41.6155932,28.1558554 41.6155932,28.1558554 41.6155932,28.1551807 C41.6169492,28.1558554 41.6176271,28.1565301 41.6189831,28.1565301 L41.619661,28.1565301 C41.6189831,28.1565301 41.6183051,28.1565301 41.6176271,28.1565301 M41.619661,28.1565301 C41.620339,28.1565301 41.6210169,28.1558554 41.6223729,28.1551807 C41.6210169,28.1558554 41.620339,28.1565301 41.619661,28.1565301 M41.6142373,28.1551807 C41.6128814,28.154506 41.6115254,28.1524819 41.6108475,28.1497831 C41.6122034,28.1518072 41.6135593,28.1538313 41.6149153,28.1551807 C41.6149153,28.1551807 41.6149153,28.1551807 41.6142373,28.1551807 M41.6108475,28.1497831 C41.5566102,28.0546506 41.5016949,27.0061687 40.9416949,25.5184578 C40.9410169,25.5164337 40.940339,25.5150843 40.939661,25.5130602 C40.5823729,24.5657831 40.019661,23.4410602 39.1220339,22.2704578 C38.960678,22.050506 38.7857627,21.8319036 38.5986441,21.616 C38.5979661,21.6153253 38.5972881,21.6146506 38.5966102,21.6139759 C36.5572881,19.2579277 33.0522034,17.1602892 28.8427119,16.3634699 C28.0067797,16.2055904 27.1444068,16.098988 26.259661,16.051759 L28.1416949,13.3678072 L27.679322,13.3037108 C32.7959322,13.9433253 37.0033898,16.7311807 39.2549153,19.738988 C39.6935593,20.3246265 40.0576271,20.9183614 40.339661,21.5060241 C40.8366102,22.482988 41.1586441,23.387759 41.3633898,24.1946988 C41.9532203,26.5176867 41.5722034,28.0330602 41.6108475,28.1497831 M8.66711864,26.096 C8.66711864,26.0953253 8.66779661,26.0939759 8.66847458,26.0919518 C8.66779661,26.0946506 8.66779661,26.096 8.66711864,26.096 M8.66644068,26.096 C8.66644068,26.096 8.66644068,26.096 8.66644068,26.0953253 L8.66644068,26.096 M8.66847458,26.0919518 C8.68135593,25.9671325 8.57559322,23.2190843 11.0644068,19.7686747 C11.3789831,19.3173012 11.7498305,18.8659277 12.1708475,18.4233253 C12.1098305,19.0912771 12.1667797,19.4960964 12.3118644,20.5540241 C12.2562712,20.6066506 12.2013559,20.6592771 12.1471186,20.7119036 C9.38440678,23.3580723 8.70779661,25.9738795 8.66847458,26.0919518 M12.5837288,20.3057349 C12.6969492,20.202506 12.8074576,20.1013012 12.9125424,20.005494 C12.9132203,20.0115663 12.9132203,20.0169639 12.9138983,20.0230361 C12.8013559,20.1161446 12.6915254,20.2106024 12.5837288,20.3057349 M15.2169492,18.4543614 C14.9566102,17.6663133 14.7891525,16.9362892 14.6915254,16.3061205 C16.0650847,15.3743614 17.6766102,14.5694458 19.459661,14.0047229 C20.4766102,14.4385542 21.8562712,15.4883855 22.480678,16.1327229 C19.7322034,16.4511807 17.24,17.3181687 15.2169492,18.4543614 M12.5518644,18.038747 C12.6840678,17.9098795 12.8210169,17.7823614 12.9613559,17.6561928 C12.9613559,17.6568675 12.9613559,17.6575422 12.960678,17.6588916 C12.8230508,17.7837108 12.6820339,17.9139277 12.5518644,18.038747 M23.5864407,16.036241 C23.6027119,16.0342169 23.6183051,16.0335422 23.6318644,16.0335422 C22.9722034,15.4026988 21.3979661,14.1173976 20.5491525,13.6957108 C21.9532203,13.3435181 23.4474576,13.1424578 25.0027119,13.1424578 C25.0894915,13.1424578 25.1769492,13.1431325 25.2637288,13.1444819 C25.56,13.1485301 25.8569492,13.16 26.1572881,13.1795663 C26.2298305,13.1822651 26.3037288,13.1856386 26.3762712,13.189012 L24.3267797,16.0058795 C24.0942373,16.0106024 23.8616949,16.0200482 23.6318644,16.0335422 C23.6284746,16.0335422 23.6250847,16.0335422 23.6216949,16.0342169 C23.6094915,16.0348916 23.5979661,16.0355663 23.5864407,16.036241" id="Fill-16" fill="#224156"></path>
                            <path d="M12.3118644,20.5540241 C12.1667797,19.4960964 12.1098305,19.0912771 12.1708475,18.4233253 C12.2935593,18.2944578 12.4210169,18.1662651 12.5518644,18.038747 C12.6820339,17.9139277 12.8230508,17.7837108 12.960678,17.6588916 C12.8467797,18.3632771 12.8264407,19.1594217 12.9125424,20.005494 C12.8074576,20.1013012 12.6969492,20.202506 12.5837288,20.3057349 C12.4908475,20.3880482 12.4,20.4710361 12.3118644,20.5540241" id="Fill-17" fill="#132231"></path>
                            <path d="M19.7091525,13.9278072 C19.8650847,13.8805783 20.0223729,13.8360482 20.180339,13.7928675 C20.019661,13.8380723 19.8555932,13.8846265 19.7091525,13.9278072" id="Fill-18" fill="#224156"></path>
                            <path d="M14.0813559,44.5024578 C13.5294915,44.1502651 13.0027119,43.778506 12.5030508,43.393253 C12.5050847,43.1146024 12.5098305,42.8319036 12.5247458,42.5384096 C12.5471186,41.7348434 12.6128814,40.8833735 12.7145763,39.9988434 C12.7145763,39.9961446 12.7152542,39.9934458 12.7152542,39.990747 C13.3613559,40.4556145 14.0522034,40.8948434 14.7850847,41.3023614 C14.7850847,41.3043855 14.7844068,41.3064096 14.7837288,41.3084337 C14.6528814,41.8077108 14.5315254,42.2975422 14.4298305,42.7684819 C14.2827119,43.3736867 14.1688136,43.9525783 14.0813559,44.5024578" id="Fill-19" fill="#0D1520"></path>
                            <path d="M22.6033898,16.2656386 C22.5667797,16.2238072 22.5254237,16.1792771 22.480678,16.1327229 C22.8447458,16.0908916 23.2135593,16.058506 23.5864407,16.036241 C23.3715254,16.058506 22.9484746,16.2190843 22.6033898,16.2656386 M19.459661,14.0047229 C19.5328814,13.9811084 19.6176271,13.9547952 19.7091525,13.9278072 C19.6257627,13.9527711 19.5430508,13.9784096 19.459661,14.0047229 M20.180339,13.7928675 C20.299661,13.7591325 20.4162712,13.7260723 20.5233898,13.6950361 C20.5267797,13.6963855 20.5294915,13.6984096 20.5328814,13.7004337 C20.4149153,13.7301205 20.2969492,13.7604819 20.180339,13.7928675" id="Fill-20" fill="#0B1116"></path>
                            <path d="M20.5328814,13.7004337 C20.5294915,13.6984096 20.5267797,13.6963855 20.5233898,13.6950361 C20.5281356,13.6936867 20.5335593,13.6916627 20.5383051,13.6903133 C20.5416949,13.6923373 20.5457627,13.6943614 20.5491525,13.6957108 C20.5437288,13.6970602 20.5383051,13.6984096 20.5328814,13.7004337" id="Fill-21" fill="#0C1115"></path>
                            <path d="M22.480678,16.1327229 C21.8562712,15.4883855 20.4766102,14.4385542 19.459661,14.0047229 C19.5430508,13.9784096 19.6257627,13.9527711 19.7091525,13.9278072 C19.8555932,13.8846265 20.019661,13.8380723 20.180339,13.7928675 C20.2969492,13.7604819 20.4149153,13.7301205 20.5328814,13.7004337 C20.5383051,13.6984096 20.5437288,13.6970602 20.5491525,13.6957108 C21.3979661,14.1173976 22.9722034,15.4026988 23.6318644,16.0335422 C23.6183051,16.0335422 23.6027119,16.0342169 23.5864407,16.036241 C23.2135593,16.058506 22.8447458,16.0908916 22.480678,16.1327229" id="Fill-22" fill="#0C1115"></path>
                            <path d="M32.1627119,7.55392771 C32.6644068,6.97773494 33.1464407,6.79893976 33.6501695,6.54660241 C31.5410169,5.5979759 29.1762712,4.96510843 26.5911864,4.8173494 C17.3254237,4.10284337 10.0311864,9.9673253 7.4820339,14.8723855 C4.72745763,19.9177831 5.22305085,23.52 5.12949153,23.4532048 C5.19118644,23.5233735 5.78576271,19.9825542 9.06644068,15.9505542 C12.2562712,11.963759 18.7410169,8.02891566 26.340339,8.63007229 C27.779661,8.70901205 29.1586441,8.94650602 30.4677966,9.30612048 C31.0528814,8.73060241 31.6027119,8.19624096 32.1627119,7.55392771" id="Fill-23" fill="#7B98A6"></path>
                            <g id="Group-26" transform="translate(4.745763, 4.722892)">
                                <mask id="mask-4" fill="white">
                                    <use xlink:href="#path-3"></use>
                                </mask>
                                <g id="Clip-25"></g>
                                <path d="M40.5362712,21.4554217 C40.5369492,21.4554217 40.5369492,21.4554217 40.5369492,21.4554217 C40.5369492,21.4554217 40.5369492,21.4554217 40.5362712,21.4554217 C40.5355932,21.4554217 40.5349153,21.454747 40.5342373,21.454747 C40.5349153,21.454747 40.5355932,21.4554217 40.5362712,21.4554217 M40.5315254,21.4527229 C40.5315254,21.4527229 40.5308475,21.4527229 40.5308475,21.4520482 C40.48,21.3872771 40.7728814,20.1984578 40.6413559,18.1885301 C40.7728814,20.1991325 40.48,21.3879518 40.5315254,21.4527229 C40.5240678,21.4446265 40.5166102,21.4203373 40.5077966,21.3805301 C40.5166102,21.4203373 40.5240678,21.4439518 40.5308475,21.4520482 M0.385762712,18.730988 C0.385084746,18.730988 0.38440678,18.730988 0.383728814,18.7303133 C0.38440678,18.730988 0.385084746,18.730988 0.385762712,18.730988 C0.385762712,18.730988 0.385762712,18.730988 0.386440678,18.730988 C0.385762712,18.730988 0.385762712,18.730988 0.385762712,18.730988 M0.386440678,18.730988 C0.387118644,18.730988 0.388474576,18.7296386 0.389830508,18.7282892 C0.388474576,18.7303133 0.38779661,18.730988 0.386440678,18.730988 M0.389830508,18.7282892 C0.410169492,18.6925301 0.383728814,18.3153735 0.423050847,17.660241 C0.505084746,16.2777831 0.877966102,13.6586024 2.59389831,10.4139759 C2.6020339,10.3991325 2.60949153,10.3849639 2.61762712,10.3694458 L2.61830508,10.3687711 C2.61830508,10.3674217 2.61898305,10.3674217 2.61966102,10.3660723 C2.62915254,10.3478554 2.63864407,10.3296386 2.64881356,10.3114217 C2.65016949,10.3093976 2.65084746,10.3066988 2.65220339,10.3053494 C2.65423729,10.3006265 2.65627119,10.2965783 2.65898305,10.2925301 C2.6840678,10.2453012 2.70983051,10.1973976 2.73627119,10.149494 C2.73898305,10.1440964 2.74169492,10.1380241 2.74508475,10.1319518 C2.75118644,10.1211566 2.75728814,10.1096867 2.76338983,10.0982169 C2.7640678,10.0961928 2.76474576,10.0948434 2.76542373,10.093494 C2.77016949,10.0847229 2.77491525,10.0759518 2.77966102,10.0671807 C5.22169492,5.45493976 11.8257627,0.0357590361 20.3016949,0.0350843373 C20.3023729,0.0350843373 20.3030508,0.0350843373 20.3037288,0.0350843373 C20.8108475,0.0350843373 21.3247458,0.0546506024 21.8454237,0.0944578313 C21.8542373,0.0951325301 21.8630508,0.0958072289 21.8718644,0.0964819277 L21.8725424,0.0964819277 C22.0176271,0.104578313 22.1613559,0.114698795 22.3050847,0.126168675 C22.3138983,0.126843373 22.3227119,0.127518072 22.3315254,0.128192771 L22.3328814,0.128192771 C22.3416949,0.12886747 22.3491525,0.129542169 22.3586441,0.130891566 L22.359322,0.130891566 C22.3681356,0.131566265 22.3749153,0.132240964 22.3837288,0.132915663 C22.3844068,0.132915663 22.3857627,0.132915663 22.3864407,0.132915663 C22.3938983,0.133590361 22.4013559,0.13426506 22.4081356,0.134939759 C22.4108475,0.134939759 22.4135593,0.134939759 22.4155932,0.135614458 C22.4216949,0.135614458 22.4284746,0.136289157 22.4345763,0.136963855 C22.4379661,0.136963855 22.4420339,0.137638554 22.4447458,0.137638554 C22.4494915,0.138313253 22.4528814,0.138313253 22.4576271,0.138987952 C22.4630508,0.139662651 22.4691525,0.140337349 22.4752542,0.140337349 C22.4772881,0.141012048 22.4779661,0.141012048 22.480678,0.141012048 C28.5037288,0.675373494 33.2908475,3.84173494 36.3111864,7.41561446 C37.0922034,8.34062651 37.7552542,9.29195181 38.2915254,10.2331566 C38.7552542,11.0475181 39.1240678,11.8531084 39.3911864,12.6263133 C38.0847458,8.8493494 34.3579661,4.27826506 28.9044068,1.82371084 C28.9044068,1.82438554 28.9030508,1.82438554 28.9030508,1.82438554 C28.4494915,1.61927711 27.9837288,1.42833735 27.5057627,1.25561446 C26.2515254,2.02746988 24.9701695,2.99498795 23.6901695,4.13590361 C23.0244068,4.02660241 22.3430508,3.95036145 21.6481356,3.90987952 C21.6467797,3.90987952 21.6454237,3.90987952 21.6440678,3.90987952 C21.64,3.90920482 21.6366102,3.90920482 21.6325424,3.90920482 C21.6291525,3.90853012 21.6257627,3.90853012 21.6223729,3.90853012 C21.619661,3.90853012 21.6169492,3.90785542 21.6142373,3.90785542 C21.6074576,3.90785542 21.6013559,3.90718072 21.5945763,3.90718072 C21.0738983,3.8653494 20.5572881,3.84578313 20.0474576,3.84578313 C20.0467797,3.84578313 20.0461017,3.84578313 20.0454237,3.84578313 C13.1261017,3.84578313 7.30372881,7.5066988 4.32949153,11.2168675 C4.32677966,11.220241 4.32338983,11.2242892 4.32067797,11.2276627 C4.31186441,11.2384578 4.30372881,11.249253 4.29491525,11.2593735 C4.29288136,11.2620723 4.29084746,11.2647711 4.28881356,11.2674699 C1.12135593,15.1773494 0.477966102,18.6149398 0.389830508,18.7282892 M40.6413559,18.1858313 C40.640678,18.1811084 40.640678,18.1763855 40.64,18.1716627 C40.640678,18.1763855 40.640678,18.1811084 40.6413559,18.1858313 M37.7864407,13.6673735 C37.7830508,13.6619759 37.780339,13.657253 37.7769492,13.6518554 C37.780339,13.657253 37.7830508,13.6619759 37.7864407,13.6673735 M37.7640678,13.6295904 C37.7342373,13.5796627 37.7044068,13.5304096 37.6745763,13.4804819 C37.7044068,13.5304096 37.7342373,13.5796627 37.7640678,13.6295904 M37.6745763,13.4804819 C37.6725424,13.4771084 37.6698305,13.4737349 37.6677966,13.4696867 C37.6698305,13.4730602 37.6725424,13.4771084 37.6745763,13.4804819 M37.6623729,13.460241 C37.6623729,13.460241 37.6623729,13.4595663 37.6616949,13.4595663 C37.6623729,13.4595663 37.6623729,13.460241 37.6623729,13.460241 M39.5098305,12.9488193 C39.5064407,12.9386988 39.5023729,12.9279036 39.4989831,12.9177831 C39.5023729,12.9279036 39.5064407,12.9386988 39.5098305,12.9488193 M39.4983051,12.9171084 C39.4949153,12.9076627 39.4922034,12.8988916 39.4881356,12.8894458 C39.4922034,12.8988916 39.4949153,12.9076627 39.4983051,12.9171084 M39.4671186,12.8300723 C39.4535593,12.7943133 39.44,12.7578795 39.4264407,12.7214458 C39.44,12.7578795 39.4535593,12.7943133 39.4671186,12.8300723 M39.4210169,12.7059277 C39.4122034,12.682988 39.4033898,12.6607229 39.3952542,12.6371084 C39.4033898,12.6607229 39.4122034,12.682988 39.4210169,12.7059277" id="Fill-24" mask="url(#mask-4)"></path>
                            </g>
                            <path d="M8.68338983,30.4781687 C8.68271186,30.4268916 9.33220339,33.122988 12.2101695,35.8339277 C15.0189831,38.5394699 20.2413559,40.8132048 26.1125424,40.3948916 C31.9722034,40.1081446 36.8874576,37.2123373 39.1701695,34.0581205 C41.5505085,30.9012048 41.5254237,28.0890602 41.6223729,28.1551807 C41.4928814,28.0870361 42.3722034,30.8398072 40.3932203,34.8137831 C38.5484746,38.731759 33.1050847,42.9364819 26.2813559,43.2535904 C19.4657627,43.7440964 13.6149153,40.277494 11.1335593,36.785253 C8.53016949,33.2356627 8.70983051,30.414747 8.68338983,30.4781687" id="Fill-27" fill="#9DBAC1"></path>
                            <path d="M14.7959322,14.0283373 C14.2772881,14.1072771 14.3572881,19.8590843 18.8989831,24.4537831 C20.919322,26.7902651 23.1362712,28.6794217 25.0840678,29.2940723 C26.3491525,29.7751325 27.4345763,29.6428916 28.0352542,29.5099759 C28.3525424,29.4404819 28.5355932,29.3703133 28.5376271,29.3905542 C28.5444068,29.252241 27.7044068,30.9599036 24.8908475,31.1946988 C22.1694915,31.4908916 18.5301695,29.9120964 15.9776271,26.929253 C13.3613559,23.9733976 12.5349153,20.1694458 12.9688136,17.6116627 C13.3884746,14.9573976 14.8725424,14.0013494 14.7959322,14.0283373" id="Fill-28" fill="#9DBAC1"></path>
                            <path d="M44.1410169,17.36 C42.8379661,13.5816867 39.1091525,9.00385542 33.6501695,6.54660241 C33.1464407,6.79893976 32.6644068,6.97773494 32.1627119,7.55392771 C31.6027119,8.19624096 31.0528814,8.73060241 30.4677966,9.30612048 C36.0542373,10.8410602 40.3471186,14.6375904 42.420339,18.2033735 C45.1132203,22.6449157 45.1742373,26.2383614 45.2854237,26.1776386 C45.1416949,26.2295904 46.1715254,22.7339759 44.1410169,17.36" id="Fill-29" fill="#9DBAC1"></path>
                            <path d="M27.679322,13.3037108 C27.2508475,13.2497349 26.8169492,13.2112771 26.3762712,13.189012 L26.419661,13.1289639 L27.679322,13.3037108" id="Fill-30" fill="#34566B"></path>
                            <path d="M26.1905085,16.1502651 L24.3227119,16.0119518 L24.3267797,16.0058795 C24.4732203,16.002506 24.619661,16.0004819 24.7674576,16.0004819 C25.1776271,16.0004819 25.5932203,16.0133012 26.0108475,16.0402892 C26.0935593,16.0436627 26.1769492,16.0470361 26.259661,16.051759 L26.1905085,16.1502651" id="Fill-31" fill="#0D1013"></path>
                            <path d="M26.259661,16.051759 C26.1769492,16.0470361 26.0935593,16.0436627 26.0108475,16.0402892 C25.5932203,16.0133012 25.1776271,16.0004819 24.7674576,16.0004819 C24.619661,16.0004819 24.4732203,16.002506 24.3267797,16.0058795 L26.3762712,13.189012 C26.8169492,13.2112771 27.2508475,13.2497349 27.679322,13.3037108 L28.1416949,13.3678072 L26.259661,16.051759" id="Fill-32" fill="#162637"></path>
                            <path d="M15.6732203,38.2675663 C14.8467797,37.8377831 14.0915254,37.3627952 13.4210169,36.8594699 C13.4210169,36.8587952 13.4210169,36.8581205 13.4210169,36.8574458 C14.0915254,37.3614458 14.8481356,37.8337349 15.6745763,38.2635181 C15.6738983,38.2648675 15.6732203,38.2662169 15.6732203,38.2675663" id="Fill-33" fill="#567C8E"></path>
                            <path d="M15.0962712,40.4131084 C14.3850847,39.9603855 13.7383051,39.4725783 13.1545763,38.9652048 C13.2183051,38.2864578 13.3077966,37.5834217 13.4210169,36.8594699 C14.0915254,37.3627952 14.8467797,37.8377831 15.6732203,38.2675663 C15.4522034,39.0097349 15.2610169,39.724241 15.0962712,40.4131084" id="Fill-34" fill="#84A6B2"></path>
                            <path d="M20.5857627,26.2484819 C20.1640678,25.8396145 19.7450847,25.4024096 19.3328814,24.9449639 C19.7450847,25.4017349 20.1647458,25.8375904 20.5871186,26.2471325 C20.5864407,26.2478072 20.5864407,26.2478072 20.5857627,26.2484819 M18.8732203,24.4274699 C18.8725424,24.4267952 18.8725424,24.4267952 18.8718644,24.4261205 C18.8725424,24.4267952 18.8725424,24.4267952 18.8732203,24.4274699 M18.8711864,24.4254458 C18.4976271,24.0455904 18.1532203,23.6569639 17.8379661,23.2649639 C17.839322,23.2615904 17.8413559,23.2582169 17.8427119,23.2555181 C18.159322,23.6502169 18.4949153,24.0428916 18.8711864,24.4254458" id="Fill-35" fill="#567C8E"></path>
                            <path d="M19.0088136,29.5437108 C17.9844068,28.9007229 17.0047458,28.082988 16.1389831,27.1080482 C16.640678,25.836241 17.2061017,24.5516145 17.8379661,23.2649639 C18.1532203,23.6569639 18.4976271,24.0455904 18.8711864,24.4254458 C18.8718644,24.4261205 18.8718644,24.4261205 18.8718644,24.4261205 C18.8725424,24.4267952 18.8725424,24.4267952 18.8732203,24.4274699 C18.8813559,24.436241 18.8901695,24.445012 18.8989831,24.4537831 C19.0427119,24.619759 19.1871186,24.7837108 19.3328814,24.9449639 C19.7450847,25.4024096 20.1640678,25.8396145 20.5857627,26.2484819 C20.0277966,27.3624096 19.500339,28.4621687 19.0088136,29.5437108" id="Fill-36" fill="#84A6B2"></path>
                            <path d="M31.4088136,9.59624096 C30.4549153,9.28250602 29.4569492,9.03893976 28.4244068,8.86959036 C28.4277966,8.86621687 28.4311864,8.86284337 28.4352542,8.86014458 C29.1294915,8.97416867 29.8074576,9.12462651 30.4677966,9.30612048 C30.4684746,9.30544578 30.4691525,9.30477108 30.4691525,9.30477108 C30.4691525,9.30477108 30.4684746,9.30544578 30.4677966,9.30612048 C30.7877966,9.39383133 31.1023729,9.48896386 31.4135593,9.59084337 C31.4115254,9.59286747 31.4101695,9.59421687 31.4088136,9.59624096" id="Fill-37" fill="#567C8E"></path>
                            <path d="M30.4677966,9.30612048 C29.8074576,9.12462651 29.1294915,8.97416867 28.4352542,8.86014458 C28.4352542,8.85946988 28.4359322,8.85946988 28.4359322,8.85879518 C29.1308475,8.97349398 29.8088136,9.12327711 30.4691525,9.30477108 C30.4691525,9.30477108 30.4684746,9.30544578 30.4677966,9.30612048" id="Fill-38" fill="#69889A"></path>
                            <g id="Group-41" transform="translate(27.796610, 5.397590)">
                                <mask id="mask-6" fill="white">
                                    <use xlink:href="#path-5"></use>
                                </mask>
                                <g id="Clip-40"></g>
                                <path d="M2.67254237,3.90718072 C2.01220339,3.72568675 1.33423729,3.57590361 0.639322034,3.46120482 C1.91932203,2.32028916 3.20067797,1.35277108 4.45491525,0.580915663 C4.93288136,0.753638554 5.39864407,0.944578313 5.85220339,1.14968675 C5.34915254,1.4020241 4.86779661,1.58081928 4.36610169,2.15633735 C3.80677966,2.7986506 3.25694915,3.33233735 2.67254237,3.90718072" id="Fill-39" mask="url(#mask-6)"></path>
                            </g>
                            <path d="M31.4135593,9.59084337 C31.1023729,9.48896386 30.7877966,9.39383133 30.4677966,9.30612048 C30.4684746,9.30544578 30.4691525,9.30477108 30.4691525,9.30477108 C31.0535593,8.72992771 31.6033898,8.19624096 32.1627119,7.55392771 C32.6644068,6.97840964 33.1457627,6.79961446 33.6488136,6.54727711 C33.8494915,6.63768675 34.0474576,6.73079518 34.2427119,6.82660241 C34.0677966,6.98178313 33.8935593,7.13763855 33.7179661,7.31238554 C32.960678,7.97359036 32.1905085,8.74004819 31.4135593,9.59084337" id="Fill-42" fill="#84A6B2"></path>
                            <path d="M39.1579661,4.59942169 C39.2386441,4.44289157 35.6759322,3.6420241 31.9905085,7.31238554 C28.2494915,10.5792771 24.2027119,16.3007229 20.5545763,23.0045301 C16.8915254,29.7103614 14.279322,36.1881446 13.2108475,41.0898313 C12.0155932,45.9989398 12.9911864,49.1976867 13.0854237,49.1437108 C13.0338983,49.2779759 11.0359322,46.2904096 11.3064407,40.859759 C11.4549153,35.5350361 13.3071186,28.2725783 17.1837288,21.181494 C21.0420339,14.0883855 26.1844068,8.52616867 30.8677966,5.76395181 C35.6752542,2.5213494 39.4630508,4.49956627 39.1579661,4.59942169" id="Fill-43" fill="#FFFFFE"></path>
                            <path d="M66.1016949,8.11325301 C70.0047458,9.05715663 72.0366102,10.4483855 72.0366102,13.5175904 C72.0366102,16.981494 69.32,19.0285301 65.4427119,19.0285301 C62.6216949,19.0285301 59.960678,18.0569639 57.7450847,16.0895422 L59.6962712,13.7800482 C61.4623729,15.3021687 63.2298305,16.1678072 65.5227119,16.1678072 C67.5247458,16.1678072 68.7918644,15.2502169 68.7918644,13.8326747 C68.7918644,12.494747 68.0535593,11.7856386 64.6277966,10.9982651 C60.6989831,10.0543614 58.4833898,8.90062651 58.4833898,5.4886747 C58.4833898,2.28790361 61.1186441,0.136963855 64.7844068,0.136963855 C67.4738983,0.136963855 69.6094915,0.949301205 71.4813559,2.44510843 L69.7410169,4.88481928 C68.0786441,3.65214458 66.4189831,2.99633735 64.7328814,2.99633735 C62.8332203,2.99633735 61.7274576,3.96722892 61.7274576,5.19990361 C61.7274576,6.64308434 62.5701695,7.27392771 66.1016949,8.11325301" id="Fill-44" fill="#17415F"></path>
                            <path d="M81.1857627,4.27286747 L78.2094915,11.4712289 L84.0027119,11.4712289 L81.1857627,4.27286747 Z M90.4888136,18.7660723 L87.060339,18.7660723 L85.1871186,14.3312771 L77.0230508,14.3312771 L75.1247458,18.7660723 L71.8027119,18.7660723 L79.9227119,0.267180723 L82.3667797,0.267180723 L90.4888136,18.7660723 Z" id="Fill-45" fill="#17415F"></path>
                            <polyline id="Fill-46" fill="#17415F" points="100.530169 14.2523373 100.426441 14.2523373 94.6508475 5.64655422 94.6508475 18.7660723 91.460339 18.7660723 91.460339 0.398746988 94.9145763 0.398746988 100.530169 9.08279518 106.147119 0.398746988 109.599322 0.398746988 109.599322 18.7660723 106.357288 18.7660723 106.357288 5.59392771 100.530169 14.2523373"></polyline>
                            <path d="M127.718644,10.8154217 C127.718644,16.2986988 124.60339,19.053494 119.781695,19.053494 C114.984407,19.053494 111.924068,16.2986988 111.924068,10.9726265 L111.924068,0.398746988 L115.167458,0.398746988 L115.167458,10.8410602 C115.167458,14.2523373 116.934915,16.0895422 119.834576,16.0895422 C122.706441,16.0895422 124.475254,14.3569157 124.475254,10.9726265 L124.475254,0.398746988 L127.718644,0.398746988 L127.718644,10.8154217" id="Fill-47" fill="#17415F"></path>
                            <polyline id="Fill-48" fill="#17415F" points="144.844746 3.28510843 133.842034 3.28510843 133.842034 8.06062651 143.660339 8.06062651 143.660339 10.9456386 133.842034 10.9456386 133.842034 15.8790361 144.978305 15.8790361 144.978305 18.7660723 130.598644 18.7660723 130.598644 0.398746988 144.844746 0.398746988 144.844746 3.28510843"></polyline>
                            <polyline id="Fill-49" fill="#17415F" points="147.253559 0.398746988 150.498305 0.398746988 150.498305 15.8270843 159.63661 15.8270843 159.63661 18.7660723 147.253559 18.7660723 147.253559 0.398746988"></polyline>
                            <path d="M62.2630508,50.8783614 C59.9084746,50.8783614 58.4684746,49.5701205 58.4684746,47.0022169 L58.4684746,42.0161928 L60.3966102,42.0161928 L60.3966102,46.9522892 C60.3966102,48.3738795 61.1105085,49.1079518 62.2888136,49.1079518 C63.4657627,49.1079518 64.1789831,48.3981687 64.1789831,47.0150361 L64.1789831,42.0161928 L66.1084746,42.0161928 L66.1084746,46.9394699 C66.1084746,49.5815904 64.6183051,50.8783614 62.2630508,50.8783614" id="Fill-50" fill="#9EA39E"></path>
                            <polyline id="Fill-51" fill="#9EA39E" points="75.8305085 50.7413976 71.5864407 45.1953735 71.5864407 50.7413976 69.6820339 50.7413976 69.6820339 42.0161928 71.4610169 42.0161928 75.5688136 47.3881446 75.5688136 42.0161928 77.4725424 42.0161928 77.4725424 50.7413976 75.8305085 50.7413976"></polyline>
                            <polygon id="Fill-52" fill="#9EA39E" points="81.560678 50.7413976 83.4874576 50.7413976 83.4874576 42.0161928 81.560678 42.0161928"></polygon>
                            <polyline id="Fill-53" fill="#9EA39E" points="91.7023729 50.8034699 89.9986441 50.8034699 86.4549153 42.0161928 88.5837288 42.0161928 90.8752542 48.1613494 93.1667797 42.0161928 95.2454237 42.0161928 91.7023729 50.8034699"></polyline>
                            <polyline id="Fill-54" fill="#9EA39E" points="98.5105085 50.7413976 98.5105085 42.0161928 105.12339 42.0161928 105.12339 43.7238554 100.426441 43.7238554 100.426441 45.4935904 104.559322 45.4935904 104.559322 47.201253 100.426441 47.201253 100.426441 49.0337349 105.185085 49.0337349 105.185085 50.7413976 98.5105085 50.7413976"></polyline>
                            <path d="M114.543051,44.9956627 C114.543051,44.1725301 113.967458,43.7488193 113.027797,43.7488193 L111.111864,43.7488193 L111.111864,46.2546506 L113.065085,46.2546506 C114.004068,46.2546506 114.543051,45.7560482 114.543051,45.0206265 L114.543051,44.9956627 Z M114.504407,50.7413976 L112.627119,47.949494 L111.111864,47.949494 L111.111864,50.7413976 L109.183051,50.7413976 L109.183051,42.0161928 L113.191186,42.0161928 C115.257627,42.0161928 116.496271,43.1011084 116.496271,44.8958072 L116.496271,44.9207711 C116.496271,46.3288675 115.733559,47.2140723 114.618305,47.6256386 L116.76,50.7413976 L114.504407,50.7413976 Z" id="Fill-55" fill="#9EA39E"></path>
                            <path d="M123.64339,50.8662169 C122.31661,50.8662169 120.976271,50.4047229 119.924068,49.4695904 L121.064407,48.1114217 C121.852203,48.7598072 122.679322,49.1706988 123.682034,49.1706988 C124.470508,49.1706988 124.946441,48.858988 124.946441,48.348241 L124.946441,48.3232771 C124.946441,47.837494 124.646102,47.5878554 123.180339,47.2140723 C121.415593,46.7647229 120.275254,46.2789398 120.275254,44.546988 L120.275254,44.5220241 C120.275254,42.938506 121.551864,41.8920482 123.343051,41.8920482 C124.621695,41.8920482 125.709153,42.2907952 126.599322,43.001253 L125.597966,44.4471325 C124.821695,43.910747 124.056949,43.5868916 123.318644,43.5868916 C122.579661,43.5868916 122.191186,43.9235663 122.191186,44.3472771 L122.191186,44.372241 C122.191186,44.9457349 122.56678,45.1326265 124.082712,45.5192289 C125.860339,45.9800482 126.862373,46.6156145 126.862373,48.1363855 L126.862373,48.1613494 C126.862373,49.8933012 125.534915,50.8662169 123.64339,50.8662169" id="Fill-56" fill="#9EA39E"></path>
                            <polygon id="Fill-57" fill="#9EA39E" points="131.311186 50.7413976 133.239322 50.7413976 133.239322 42.0161928 131.311186 42.0161928"></polygon>
                            <polyline id="Fill-58" fill="#9EA39E" points="141.348475 43.7866024 141.348475 50.7413976 139.420339 50.7413976 139.420339 43.7866024 136.752542 43.7866024 136.752542 42.0161928 144.015593 42.0161928 144.015593 43.7866024 141.348475 43.7866024"></polyline>
                            <polyline id="Fill-59" fill="#9EA39E" points="150.945763 47.264 150.945763 50.7413976 149.016949 50.7413976 149.016949 47.3011084 145.647458 42.0161928 147.902373 42.0161928 149.99322 45.5192289 152.122034 42.0161928 154.313898 42.0161928 150.945763 47.264"></polyline>
                            <polyline id="Fill-60" fill="#17415F" points="67.1274576 34.8468434 67.0264407 34.8468434 61.5138983 26.6310361 61.5138983 39.1547952 58.4698305 39.1547952 58.4698305 21.6213976 61.7667797 21.6213976 67.1274576 29.9114217 72.4888136 21.6213976 75.7857627 21.6213976 75.7857627 39.1547952 72.6894915 39.1547952 72.6894915 26.5811084 67.1274576 34.8468434"></polyline>
                            <polyline id="Fill-61" fill="#17415F" points="91.7661017 24.3768675 81.8013559 24.3768675 81.8013559 28.9351325 90.6359322 28.9351325 90.6359322 31.6906024 81.8013559 31.6906024 81.8013559 36.4 91.8942373 36.4 91.8942373 39.1547952 78.7044068 39.1547952 78.7044068 21.6213976 91.7661017 21.6213976 91.7661017 24.3768675"></polyline>
                            <path d="M101.214915,24.4267952 L97.2738983,24.4267952 L97.2738983,30.3121928 L101.242712,30.3121928 C103.455593,30.3121928 104.865763,29.1611566 104.865763,27.357012 C104.865763,25.4293976 103.507119,24.4267952 101.214915,24.4267952 Z M104.915932,39.1547952 L100.586441,33.0440482 L97.2738983,33.0440482 L97.2738983,39.1547952 L94.1769492,39.1547952 L94.1769492,21.6213976 L101.467119,21.6213976 C105.52,21.6213976 108.012203,23.750747 108.012203,27.1822651 C108.012203,30.0868434 106.275254,31.8403855 103.808136,32.5171084 L108.564746,39.1547952 L104.915932,39.1547952 Z" id="Fill-62" fill="#17415F"></path>
                            <path d="M117.349831,24.4267952 L113.970169,24.4267952 L113.970169,30.3121928 L117.376271,30.3121928 C119.589831,30.3121928 121,29.1611566 121,27.357012 C121,25.4293976 119.640678,24.4267952 117.349831,24.4267952 Z M121.050169,39.1547952 L116.720678,33.0440482 L113.970169,33.0440482 L113.970169,39.1547952 L110.87322,39.1547952 L110.87322,21.6213976 L117.602712,21.6213976 C121.652881,21.6213976 124.145763,23.750747 124.145763,27.1822651 C124.145763,30.0868434 122.409492,31.8403855 119.941695,32.5171084 L124.699661,39.1547952 L121.050169,39.1547952 Z" id="Fill-63" fill="#17415F"></path>
                            <polygon id="Fill-64" fill="#17415F" points="127.351864 39.1547952 130.448814 39.1547952 130.448814 21.6213976 127.351864 21.6213976"></polygon>
                            <polyline id="Fill-65" fill="#17415F" points="132.783051 21.6213976 132.783051 24.4767229 138.370847 24.4767229 138.370847 39.1547952 141.492203 39.1547952 141.492203 24.4767229 150.928814 24.4767229 150.928814 39.1547952 154.050169 39.1547952 154.050169 24.4767229 159.63661 24.4767229 159.63661 21.6213976 132.783051 21.6213976"></polyline>
                        </g>
                    </g>
                </g>
            </g>
        </g>
    </g>
</svg>